{
    "asset" : {
        "generator" : "Khronos glTF Blender I/O v1.3.48",
        "version" : "2.0"
    },
    "scene" : 0,
    "scenes" : [
        {
            "name" : "Scene",
            "nodes" : [
                0
            ]
        }
    ],
    "nodes" : [
        {
            "mesh" : 0,
            "name" : "jambsVertical"
        }
    ],
    "materials" : [
        {
            "doubleSided" : true,
            "emissiveFactor" : [
                0,
                0,
                0
            ],
            "name" : "jambsVertical",
            "normalTexture" : {
                "index" : 0,
                "scale" : 2.4200000762939453,
                "texCoord" : 0
            },
            "pbrMetallicRoughness" : {
                "baseColorTexture" : {
                    "index" : 1,
                    "texCoord" : 0
                },
                "metallicFactor" : 0,
                "roughnessFactor" : 0.7268907427787781
            }
        }
    ],
    "meshes" : [
        {
            "name" : "jambsVertical",
            "primitives" : [
                {
                    "attributes" : {
                        "POSITION" : 0,
                        "NORMAL" : 1,
                        "TEXCOORD_0" : 2
                    },
                    "indices" : 3,
                    "material" : 0
                }
            ]
        }
    ],
    "textures" : [
        {
            "source" : 0
        },
        {
            "source" : 1
        }
    ],
    "images" : [
        {
            "mimeType" : "image/png",
            "name" : "jambsVertical_normal",
            "uri" : "textures/jambsVertical_normal.png"
        },
        {
            "mimeType" : "image/png",
            "name" : "jambsVertical_baseColor",
            "uri" : "textures/jambsVertical_baseColor.png"
        }
    ],
    "accessors" : [
        {
            "bufferView" : 0,
            "componentType" : 5126,
            "count" : 314,
            "max" : [
                1.600000023841858,
                2.450000047683716,
                1.587499976158142
            ],
            "min" : [
                -1.6000065803527832,
                0.04372072219848633,
                -1.412500262260437
            ],
            "type" : "VEC3"
        },
        {
            "bufferView" : 1,
            "componentType" : 5126,
            "count" : 314,
            "type" : "VEC3"
        },
        {
            "bufferView" : 2,
            "componentType" : 5126,
            "count" : 314,
            "type" : "VEC2"
        },
        {
            "bufferView" : 3,
            "componentType" : 5123,
            "count" : 612,
            "type" : "SCALAR"
        }
    ],
    "bufferViews" : [
        {
            "buffer" : 0,
            "byteLength" : 3768,
            "byteOffset" : 0
        },
        {
            "buffer" : 0,
            "byteLength" : 3768,
            "byteOffset" : 3768
        },
        {
            "buffer" : 0,
            "byteLength" : 2512,
            "byteOffset" : 7536
        },
        {
            "buffer" : 0,
            "byteLength" : 1224,
            "byteOffset" : 10048
        }
    ],
    "buffers" : [
        {
            "byteLength" : 11272,
            "uri" : "jambsVertical.bin"
        }
    ]
}
