{
    "asset" : {
        "generator" : "Khronos glTF Blender I/O v1.3.48",
        "version" : "2.0"
    },
    "scene" : 0,
    "scenes" : [
        {
            "name" : "Scene",
            "nodes" : [
                0
            ]
        }
    ],
    "nodes" : [
        {
            "mesh" : 0,
            "name" : "flower_pot_under"
        }
    ],
    "materials" : [
        {
            "doubleSided" : true,
            "emissiveFactor" : [
                0,
                0,
                0
            ],
            "name" : "flowerPot",
            "normalTexture" : {
                "index" : 0,
                "texCoord" : 0
            },
            "pbrMetallicRoughness" : {
                "baseColorTexture" : {
                    "index" : 1,
                    "texCoord" : 0
                },
                "metallicFactor" : 0,
                "roughnessFactor" : 0.5
            }
        }
    ],
    "meshes" : [
        {
            "name" : "flower_pot_under",
            "primitives" : [
                {
                    "attributes" : {
                        "POSITION" : 0,
                        "NORMAL" : 1,
                        "TEXCOORD_0" : 2
                    },
                    "indices" : 3,
                    "material" : 0
                }
            ]
        }
    ],
    "textures" : [
        {
            "source" : 0
        },
        {
            "source" : 1
        }
    ],
    "images" : [
        {
            "mimeType" : "image/png",
            "name" : "flowerPots_normal",
            "uri" : "textures/flowerPots_normal.png"
        },
        {
            "mimeType" : "image/png",
            "name" : "flowerPots_baseColor",
            "uri" : "textures/flowerPots_baseColor.png"
        }
    ],
    "accessors" : [
        {
            "bufferView" : 0,
            "componentType" : 5126,
            "count" : 1758,
            "max" : [
                -1.8791955709457397,
                0.19520699977874756,
                -0.8464055061340332
            ],
            "min" : [
                -2.069321393966675,
                0.04983121529221535,
                -1.1846414804458618
            ],
            "type" : "VEC3"
        },
        {
            "bufferView" : 1,
            "componentType" : 5126,
            "count" : 1758,
            "type" : "VEC3"
        },
        {
            "bufferView" : 2,
            "componentType" : 5126,
            "count" : 1758,
            "type" : "VEC2"
        },
        {
            "bufferView" : 3,
            "componentType" : 5123,
            "count" : 6876,
            "type" : "SCALAR"
        }
    ],
    "bufferViews" : [
        {
            "buffer" : 0,
            "byteLength" : 21096,
            "byteOffset" : 0
        },
        {
            "buffer" : 0,
            "byteLength" : 21096,
            "byteOffset" : 21096
        },
        {
            "buffer" : 0,
            "byteLength" : 14064,
            "byteOffset" : 42192
        },
        {
            "buffer" : 0,
            "byteLength" : 13752,
            "byteOffset" : 56256
        }
    ],
    "buffers" : [
        {
            "byteLength" : 70008,
            "uri" : "flowerPots.bin"
        }
    ]
}
