{
    "asset" : {
        "generator" : "Khronos glTF Blender I/O v1.3.48",
        "version" : "2.0"
    },
    "scene" : 0,
    "scenes" : [
        {
            "name" : "Scene",
            "nodes" : [
                0
            ]
        }
    ],
    "nodes" : [
        {
            "mesh" : 0,
            "name" : "cork_board"
        }
    ],
    "materials" : [
        {
            "doubleSided" : true,
            "emissiveFactor" : [
                0,
                0,
                0
            ],
            "name" : "corkBoard",
            "pbrMetallicRoughness" : {
                "baseColorTexture" : {
                    "index" : 0,
                    "texCoord" : 0
                },
                "metallicFactor" : 0,
                "roughnessFactor" : 0.5
            }
        }
    ],
    "meshes" : [
        {
            "name" : "cork_board",
            "primitives" : [
                {
                    "attributes" : {
                        "POSITION" : 0,
                        "NORMAL" : 1,
                        "TEXCOORD_0" : 2
                    },
                    "indices" : 3,
                    "material" : 0
                }
            ]
        }
    ],
    "textures" : [
        {
            "source" : 0
        }
    ],
    "images" : [
        {
            "mimeType" : "image/png",
            "name" : "corkBoard_baseColor",
            "uri" : "textures/corkBoard_baseColor.png"
        }
    ],
    "accessors" : [
        {
            "bufferView" : 0,
            "componentType" : 5126,
            "count" : 1689,
            "max" : [
                -0.4948663115501404,
                1.3254296779632568,
                1.5859286785125732
            ],
            "min" : [
                -1.2158808708190918,
                0.843424379825592,
                1.5716841220855713
            ],
            "type" : "VEC3"
        },
        {
            "bufferView" : 1,
            "componentType" : 5126,
            "count" : 1689,
            "type" : "VEC3"
        },
        {
            "bufferView" : 2,
            "componentType" : 5126,
            "count" : 1689,
            "type" : "VEC2"
        },
        {
            "bufferView" : 3,
            "componentType" : 5123,
            "count" : 4776,
            "type" : "SCALAR"
        }
    ],
    "bufferViews" : [
        {
            "buffer" : 0,
            "byteLength" : 20268,
            "byteOffset" : 0
        },
        {
            "buffer" : 0,
            "byteLength" : 20268,
            "byteOffset" : 20268
        },
        {
            "buffer" : 0,
            "byteLength" : 13512,
            "byteOffset" : 40536
        },
        {
            "buffer" : 0,
            "byteLength" : 9552,
            "byteOffset" : 54048
        }
    ],
    "buffers" : [
        {
            "byteLength" : 63600,
            "uri" : "corcBoard.bin"
        }
    ]
}
