{
    "asset" : {
        "generator" : "Khronos glTF Blender I/O v1.3.48",
        "version" : "2.0"
    },
    "scene" : 0,
    "scenes" : [
        {
            "name" : "Scene",
            "nodes" : [
                0
            ]
        }
    ],
    "nodes" : [
        {
            "mesh" : 0,
            "name" : "Cylinder"
        }
    ],
    "materials" : [
        {
            "doubleSided" : true,
            "emissiveFactor" : [
                0,
                0,
                0
            ],
            "name" : "lamp",
            "pbrMetallicRoughness" : {
                "baseColorTexture" : {
                    "index" : 0,
                    "texCoord" : 0
                },
                "metallicRoughnessTexture" : {
                    "index" : 1,
                    "texCoord" : 0
                }
            }
        }
    ],
    "meshes" : [
        {
            "name" : "Cylinder.001",
            "primitives" : [
                {
                    "attributes" : {
                        "POSITION" : 0,
                        "NORMAL" : 1,
                        "TEXCOORD_0" : 2
                    },
                    "indices" : 3,
                    "material" : 0
                }
            ]
        }
    ],
    "textures" : [
        {
            "source" : 0
        },
        {
            "source" : 1
        }
    ],
    "images" : [
        {
            "mimeType" : "image/png",
            "name" : "lamp_baseColor",
            "uri" : "textures/lamp_baseColor.png"
        },
        {
            "mimeType" : "image/png",
            "name" : "lamp_metallicRoughness",
            "uri" : "textures/lamp_metallicRoughness.png"
        }
    ],
    "accessors" : [
        {
            "bufferView" : 0,
            "componentType" : 5126,
            "count" : 2894,
            "max" : [
                -1.2998069524765015,
                1.0616669654846191,
                1.528769612312317
            ],
            "min" : [
                -1.59421706199646,
                0.05516242980957031,
                0.6802165508270264
            ],
            "type" : "VEC3"
        },
        {
            "bufferView" : 1,
            "componentType" : 5126,
            "count" : 2894,
            "type" : "VEC3"
        },
        {
            "bufferView" : 2,
            "componentType" : 5126,
            "count" : 2894,
            "type" : "VEC2"
        },
        {
            "bufferView" : 3,
            "componentType" : 5123,
            "count" : 11064,
            "type" : "SCALAR"
        }
    ],
    "bufferViews" : [
        {
            "buffer" : 0,
            "byteLength" : 34728,
            "byteOffset" : 0
        },
        {
            "buffer" : 0,
            "byteLength" : 34728,
            "byteOffset" : 34728
        },
        {
            "buffer" : 0,
            "byteLength" : 23152,
            "byteOffset" : 69456
        },
        {
            "buffer" : 0,
            "byteLength" : 22128,
            "byteOffset" : 92608
        }
    ],
    "buffers" : [
        {
            "byteLength" : 114736,
            "uri" : "lamp.bin"
        }
    ]
}
