{
    "asset" : {
        "generator" : "Khronos glTF Blender I/O v1.3.48",
        "version" : "2.0"
    },
    "scene" : 0,
    "scenes" : [
        {
            "name" : "Scene",
            "nodes" : [
                0
            ]
        }
    ],
    "nodes" : [
        {
            "mesh" : 0,
            "name" : "balcony"
        }
    ],
    "materials" : [
        {
            "doubleSided" : true,
            "emissiveFactor" : [
                0,
                0,
                0
            ],
            "name" : "balcony",
            "normalTexture" : {
                "index" : 0,
                "texCoord" : 0
            },
            "pbrMetallicRoughness" : {
                "baseColorTexture" : {
                    "index" : 1,
                    "texCoord" : 0
                },
                "metallicRoughnessTexture" : {
                    "index" : 2,
                    "texCoord" : 0
                }
            }
        }
    ],
    "meshes" : [
        {
            "name" : "balcony",
            "primitives" : [
                {
                    "attributes" : {
                        "POSITION" : 0,
                        "NORMAL" : 1,
                        "TEXCOORD_0" : 2
                    },
                    "indices" : 3,
                    "material" : 0
                }
            ]
        }
    ],
    "textures" : [
        {
            "source" : 0
        },
        {
            "source" : 1
        },
        {
            "source" : 2
        }
    ],
    "images" : [
        {
            "mimeType" : "image/png",
            "name" : "balcony_normal",
            "uri" : "textures/balcony_normal.png"
        },
        {
            "mimeType" : "image/png",
            "name" : "balcony_baseColor",
            "uri" : "textures/balcony_baseColor.png"
        },
        {
            "mimeType" : "image/png",
            "name" : "balcony_metallicRoughness-balcony_metallicRoughness.png",
            "uri" : "textures/balcony_metallicRoughness-balcony_metallicRoughness_png.png"
        }
    ],
    "accessors" : [
        {
            "bufferView" : 0,
            "componentType" : 5126,
            "count" : 185,
            "max" : [
                -1.8514074087142944,
                0.6744813919067383,
                1.849922776222229
            ],
            "min" : [
                -2.8528664112091064,
                0.00999993085861206,
                -1.6749228239059448
            ],
            "type" : "VEC3"
        },
        {
            "bufferView" : 1,
            "componentType" : 5126,
            "count" : 185,
            "type" : "VEC3"
        },
        {
            "bufferView" : 2,
            "componentType" : 5126,
            "count" : 185,
            "type" : "VEC2"
        },
        {
            "bufferView" : 3,
            "componentType" : 5123,
            "count" : 324,
            "type" : "SCALAR"
        }
    ],
    "bufferViews" : [
        {
            "buffer" : 0,
            "byteLength" : 2220,
            "byteOffset" : 0
        },
        {
            "buffer" : 0,
            "byteLength" : 2220,
            "byteOffset" : 2220
        },
        {
            "buffer" : 0,
            "byteLength" : 1480,
            "byteOffset" : 4440
        },
        {
            "buffer" : 0,
            "byteLength" : 648,
            "byteOffset" : 5920
        }
    ],
    "buffers" : [
        {
            "byteLength" : 6568,
            "uri" : "balcony.bin"
        }
    ]
}
