{
    "asset" : {
        "generator" : "Khronos glTF Blender I/O v1.3.48",
        "version" : "2.0"
    },
    "scene" : 0,
    "scenes" : [
        {
            "name" : "Scene",
            "nodes" : [
                0
            ]
        }
    ],
    "nodes" : [
        {
            "mesh" : 0,
            "name" : "leaves.002"
        }
    ],
    "materials" : [
        {
            "doubleSided" : true,
            "emissiveFactor" : [
                0,
                0,
                0
            ],
            "name" : "flower",
            "pbrMetallicRoughness" : {
                "baseColorTexture" : {
                    "index" : 0,
                    "texCoord" : 0
                },
                "metallicFactor" : 0,
                "roughnessFactor" : 0.5
            }
        }
    ],
    "meshes" : [
        {
            "name" : "leaves.002",
            "primitives" : [
                {
                    "attributes" : {
                        "POSITION" : 0,
                        "NORMAL" : 1,
                        "TEXCOORD_0" : 2,
                        "TEXCOORD_1" : 3
                    },
                    "indices" : 4,
                    "material" : 0
                }
            ]
        }
    ],
    "textures" : [
        {
            "source" : 0
        }
    ],
    "images" : [
        {
            "mimeType" : "image/png",
            "name" : "flower_baseColor",
            "uri" : "textures/flower_baseColor.png"
        }
    ],
    "accessors" : [
        {
            "bufferView" : 0,
            "componentType" : 5126,
            "count" : 9228,
            "max" : [
                -1.8217732906341553,
                0.4916430115699768,
                -0.8318358063697815
            ],
            "min" : [
                -2.1623802185058594,
                0.040325701236724854,
                -1.2878355979919434
            ],
            "type" : "VEC3"
        },
        {
            "bufferView" : 1,
            "componentType" : 5126,
            "count" : 9228,
            "type" : "VEC3"
        },
        {
            "bufferView" : 2,
            "componentType" : 5126,
            "count" : 9228,
            "type" : "VEC2"
        },
        {
            "bufferView" : 3,
            "componentType" : 5126,
            "count" : 9228,
            "type" : "VEC2"
        },
        {
            "bufferView" : 4,
            "componentType" : 5123,
            "count" : 19152,
            "type" : "SCALAR"
        }
    ],
    "bufferViews" : [
        {
            "buffer" : 0,
            "byteLength" : 110736,
            "byteOffset" : 0
        },
        {
            "buffer" : 0,
            "byteLength" : 110736,
            "byteOffset" : 110736
        },
        {
            "buffer" : 0,
            "byteLength" : 73824,
            "byteOffset" : 221472
        },
        {
            "buffer" : 0,
            "byteLength" : 73824,
            "byteOffset" : 295296
        },
        {
            "buffer" : 0,
            "byteLength" : 38304,
            "byteOffset" : 369120
        }
    ],
    "buffers" : [
        {
            "byteLength" : 407424,
            "uri" : "flowers.bin"
        }
    ]
}
