{
    "asset" : {
        "generator" : "Khronos glTF Blender I/O v1.3.48",
        "version" : "2.0"
    },
    "scene" : 0,
    "scenes" : [
        {
            "name" : "Scene",
            "nodes" : [
                0
            ]
        }
    ],
    "nodes" : [
        {
            "mesh" : 0,
            "name" : "Cube.002"
        }
    ],
    "materials" : [
        {
            "doubleSided" : true,
            "emissiveFactor" : [
                0,
                0,
                0
            ],
            "name" : "cupboard",
            "normalTexture" : {
                "index" : 0,
                "texCoord" : 0
            },
            "pbrMetallicRoughness" : {
                "baseColorTexture" : {
                    "index" : 1,
                    "texCoord" : 0
                },
                "metallicRoughnessTexture" : {
                    "index" : 2,
                    "texCoord" : 0
                }
            }
        }
    ],
    "meshes" : [
        {
            "name" : "Cube.007",
            "primitives" : [
                {
                    "attributes" : {
                        "POSITION" : 0,
                        "NORMAL" : 1,
                        "TEXCOORD_0" : 2
                    },
                    "indices" : 3,
                    "material" : 0
                }
            ]
        }
    ],
    "textures" : [
        {
            "source" : 0
        },
        {
            "source" : 1
        },
        {
            "source" : 2
        }
    ],
    "images" : [
        {
            "mimeType" : "image/png",
            "name" : "cupboard_normal",
            "uri" : "textures/cupboard_normal.png"
        },
        {
            "mimeType" : "image/png",
            "name" : "cupboard_baseColor.png",
            "uri" : "textures/cupboard_baseColor_png.png"
        },
        {
            "mimeType" : "image/png",
            "name" : "cupboard_metallicRoughness-cupboard_metallicRoughness.png",
            "uri" : "textures/cupboard_metallicRoughness-cupboard_metallicRoughness_png.png"
        }
    ],
    "accessors" : [
        {
            "bufferView" : 0,
            "componentType" : 5126,
            "count" : 1139,
            "max" : [
                1.513758897781372,
                1.0686321258544922,
                1.514910101890564
            ],
            "min" : [
                0.07006961107254028,
                0.024933993816375732,
                1.0447593927383423
            ],
            "type" : "VEC3"
        },
        {
            "bufferView" : 1,
            "componentType" : 5126,
            "count" : 1139,
            "type" : "VEC3"
        },
        {
            "bufferView" : 2,
            "componentType" : 5126,
            "count" : 1139,
            "type" : "VEC2"
        },
        {
            "bufferView" : 3,
            "componentType" : 5123,
            "count" : 1728,
            "type" : "SCALAR"
        }
    ],
    "bufferViews" : [
        {
            "buffer" : 0,
            "byteLength" : 13668,
            "byteOffset" : 0
        },
        {
            "buffer" : 0,
            "byteLength" : 13668,
            "byteOffset" : 13668
        },
        {
            "buffer" : 0,
            "byteLength" : 9112,
            "byteOffset" : 27336
        },
        {
            "buffer" : 0,
            "byteLength" : 3456,
            "byteOffset" : 36448
        }
    ],
    "buffers" : [
        {
            "byteLength" : 39904,
            "uri" : "cupboard.bin"
        }
    ]
}
